<svg width="303" height="64" viewBox="0 0 303 64" fill="none" xmlns="http://www.w3.org/2000/svg">
<g clip-path="url(#clip0_63_681)">
<path d="M60.8533 8.36748L53.2589 2.05552C49.9664 -0.683318 45.1865 -0.683318 41.8939 2.05552L32.7062 9.6902L23.5261 2.05552C20.2336 -0.683318 15.4612 -0.687105 12.1649 2.04795L4.55283 8.36748C1.66647 10.7618 0 14.3159 0 18.067V33.787C0 37.5305 1.66395 41.0809 4.54148 43.4739L24.6451 60.196C29.3127 64.077 36.0846 64.077 40.7484 60.196L60.8521 43.4739C63.7321 41.0783 65.3973 37.5254 65.3973 33.7794V18.0607C65.3973 14.3172 63.7308 10.763 60.8521 8.36874L60.8533 8.36748ZM59.4707 32.7394C59.4707 35.3823 58.2924 37.8914 56.2626 39.5814L38.3818 54.4545C35.088 57.1933 30.3093 57.1933 27.013 54.4545L9.13216 39.5814C7.10237 37.8914 5.92789 35.3823 5.92789 32.7394V19.1083C5.92789 16.4616 7.10616 13.9524 9.14351 12.2624L14.5302 7.79321C16.4528 6.1966 19.2382 6.19913 21.157 7.79699L28.0701 13.546L17.983 21.9254C15.4902 24.0003 15.4864 27.8297 17.9792 29.9046L29.3632 39.3959C31.2858 40.9976 34.075 41.0001 35.9975 39.3997L47.4143 29.9046C49.9071 27.8297 49.9071 24.0003 47.4143 21.9254L41.8725 17.316C41.5987 17.0876 41.2001 17.0876 40.925 17.316L37.4458 20.2076C37.0888 20.5042 37.0888 21.052 37.4458 21.3473L41.5684 24.7766C42.2837 25.3698 42.2837 26.4628 41.5684 27.056L33.6334 33.6607C33.0809 34.1164 32.2849 34.1164 31.7361 33.657L23.8239 27.0598C23.1124 26.4666 23.1124 25.3735 23.8276 24.7803L30.2324 19.4579L31.7588 18.1907L37.3411 13.5498L41.7753 9.86564L44.2605 7.79826C46.1831 6.20039 48.9685 6.20039 50.8873 7.79826L56.2626 12.2637C58.2924 13.9537 59.4707 16.4591 59.4707 19.1058V32.7406V32.7394Z" fill="black"/>
<path d="M89.0381 6.59725H103.293C103.658 6.59725 103.953 6.89259 103.953 7.25735V11.5739C103.953 11.9386 103.658 12.234 103.293 12.234H89.8695C87.0449 12.234 84.754 14.5247 84.754 17.3519V21.9146C84.754 22.2793 85.0492 22.5747 85.4138 22.5747H100.258C100.623 22.5747 100.918 22.87 100.918 23.2348V27.2383C100.918 27.603 100.623 27.8984 100.258 27.8984H85.4138C85.0492 27.8984 84.754 28.1937 84.754 28.5585V43.7849C84.754 44.1497 84.4588 44.445 84.0942 44.445H79.467C79.1024 44.445 78.8072 44.1497 78.8072 43.7849V16.8307C78.8072 11.1776 83.3878 6.59473 89.0381 6.59473V6.59725Z" fill="black"/>
<path d="M153.697 19.0266C151.993 17.4956 149.662 16.7295 146.706 16.7295C146.625 16.7295 146.545 16.7308 146.464 16.7333C146.386 16.732 146.307 16.7295 146.228 16.7295C143.33 16.7295 140.699 17.8717 138.76 19.7309C138.55 19.9315 138.202 19.7839 138.202 19.4936V18.1204C138.202 17.7556 137.907 17.4603 137.542 17.4603H133.228C132.863 17.4603 132.568 17.7556 132.568 18.1204V43.786C132.568 44.1507 132.863 44.4461 133.228 44.4461H137.855C138.22 44.4461 138.515 44.1507 138.515 43.786V28.5267C138.515 27.5523 138.671 26.631 138.984 25.7601C139.297 24.8905 139.732 24.1332 140.289 23.4895C140.845 22.8458 141.523 22.341 142.324 21.9762C143.123 21.6114 144.027 21.4284 145.037 21.4284C146.811 21.4284 148.115 21.9068 148.95 22.8635C149.785 23.8215 150.237 25.3613 150.307 27.4829V43.7872C150.307 44.152 150.602 44.4473 150.966 44.4473H155.594C155.958 44.4473 156.253 44.152 156.253 43.7872V25.9179C156.253 22.8559 155.401 20.5601 153.696 19.0278L153.697 19.0266Z" fill="black"/>
<path d="M128.203 18.1135V46.889C128.203 52.5434 123.623 57.1262 117.974 57.1262H106.619C106.254 57.1262 105.958 56.8296 105.958 56.4649V52.1496C105.958 51.7849 106.254 51.4883 106.619 51.4883H117.141C119.967 51.4883 122.568 49.1419 122.568 46.3147V42.4198C122.568 42.127 122.217 41.973 122.004 42.1762C120.065 44.0303 117.436 45.1712 114.542 45.1712C114.463 45.1712 114.385 45.17 114.305 45.1675C114.226 45.1687 114.145 45.1712 114.065 45.1712C111.11 45.1712 108.778 44.4064 107.073 42.8754C105.369 41.3419 104.516 39.0473 104.516 35.9841V18.1135C104.516 17.75 104.812 17.4534 105.177 17.4534H109.804C110.169 17.4534 110.464 17.75 110.464 18.1135V34.4191C110.534 36.5407 110.986 38.0818 111.821 39.0373C112.656 39.9952 113.961 40.4723 115.734 40.4723C116.742 40.4723 117.648 40.2893 118.447 39.9245C119.247 39.5598 119.927 39.0549 120.482 38.4112C121.038 37.7663 121.473 37.0103 121.786 36.1406C122.099 35.2698 122.255 34.3471 122.255 33.3728V18.1122C122.255 17.7488 122.552 17.4521 122.915 17.4521H127.544C127.907 17.4521 128.203 17.7488 128.203 18.1122V18.1135Z" fill="black"/>
<path d="M180.028 7.25678V19.5021C180.028 19.7923 179.681 19.9413 179.472 19.7406C178.48 18.7877 177.308 18.0241 176.01 17.5028C175.967 17.4826 175.92 17.4612 175.871 17.441C172.914 16.2079 169.168 16.8642 169.168 16.8642V16.8667C168.319 16.9967 167.477 17.2188 166.645 17.5382C165.235 18.0784 163.984 18.9215 162.888 20.07C161.793 21.2186 160.913 22.6801 160.254 24.4547C159.593 26.2293 159.262 28.3358 159.262 30.7704C159.262 32.7886 159.523 34.6768 160.044 36.4336C160.567 38.1918 161.349 39.7139 162.392 41.0013C163.435 42.2887 164.747 43.3073 166.332 44.0544C167.914 44.8029 169.766 45.1765 171.887 45.1765C171.942 45.1765 171.995 45.1727 172.049 45.1727C172.136 45.1752 172.223 45.1765 172.31 45.1765C175.209 45.1765 177.842 44.033 179.781 42.1726C179.99 41.9719 180.338 42.1183 180.338 42.4099V43.7856C180.338 44.1504 180.634 44.4457 180.998 44.4457H185.313C185.677 44.4457 185.972 44.1504 185.972 43.7856V7.25678C185.972 6.89202 185.677 6.59668 185.313 6.59668H180.685C180.321 6.59668 180.025 6.89202 180.025 7.25678H180.028ZM167.012 37.6087C166.402 36.7391 165.951 35.747 165.655 34.6338C165.359 33.5206 165.213 32.3898 165.213 31.2412C165.213 30.0232 165.343 28.8318 165.604 27.6656C165.865 26.5006 166.299 25.4556 166.908 24.5342C167.516 23.6128 168.3 22.8644 169.256 22.2901C170.212 21.7158 171.385 21.4293 172.778 21.4293C175.074 21.4293 176.891 22.2649 178.23 23.9347C179.569 25.6045 180.239 27.9369 180.239 30.9295C180.239 32.1133 180.09 33.2707 179.796 34.4003C179.499 35.5312 179.048 36.5498 178.44 37.4535C177.83 38.3584 177.048 39.0892 176.092 39.6458C175.135 40.2024 173.997 40.4813 172.675 40.4813C171.353 40.4813 170.275 40.2201 169.335 39.6988C168.397 39.1763 167.622 38.4808 167.014 37.6112L167.012 37.6087Z" fill="black"/>
<path d="M218.397 23.232C222.298 24.5535 225.087 28.0849 225.087 32.4734V43.7329C225.087 44.08 224.807 44.3602 224.46 44.3602H219.825C219.478 44.3602 219.198 44.08 219.198 43.7329V32.9871C219.198 30.1877 216.93 27.9196 214.133 27.9196H207.324C207.031 27.936 206.736 27.9461 206.439 27.9461H204.051C203.704 27.9461 203.424 28.2263 203.424 28.5734V43.7064C203.424 44.0535 203.144 44.3337 202.797 44.3337H198.162C197.816 44.3337 197.536 44.0535 197.536 43.7064V7.48177C197.536 7.13469 197.816 6.85449 198.162 6.85449H202.797C203.144 6.85449 203.424 7.13469 203.424 7.48177V22.0406C203.424 22.3876 203.704 22.6678 204.051 22.6678H205.616C211.436 22.6678 216.154 17.9474 216.154 12.1239V7.48556C216.154 7.13847 216.434 6.85828 216.781 6.85828H221.416C221.763 6.85828 222.043 7.13847 222.043 7.48556V12.3347C222.043 16.2524 220.599 19.8305 218.216 22.5719C218.024 22.7915 218.121 23.1399 218.397 23.2333V23.232Z" fill="black"/>
<path d="M253.813 17.8513C254.173 17.8513 254.464 18.1429 254.464 18.5026V43.8564C254.464 44.2161 254.172 44.5077 253.812 44.5077H249.553C249.194 44.5077 248.902 44.2161 248.902 43.8564V42.4984C248.902 42.2119 248.559 42.0655 248.352 42.2636C246.437 44.1 243.84 45.2296 240.977 45.2296C240.891 45.2296 240.806 45.2284 240.72 45.2259C240.667 45.2259 240.614 45.2296 240.56 45.2296C238.466 45.2296 236.638 44.8598 235.076 44.1215C233.513 43.3831 232.219 42.3785 231.188 41.1075C230.158 39.8378 229.385 38.3346 228.87 36.6004C228.356 34.8675 228.098 33.0033 228.098 31.0116C228.098 28.6085 228.424 26.5298 229.077 24.7779C229.73 23.0261 230.596 21.5835 231.677 20.4501C232.758 19.3167 233.995 18.4837 235.385 17.951C236.206 17.6368 237.036 17.4171 237.876 17.2884V17.2859C237.876 17.2859 241.574 16.6397 244.492 17.8551C244.541 17.8753 244.585 17.8955 244.628 17.9157C245.907 18.4294 247.063 19.1829 248.041 20.1219C248.249 20.3213 248.593 20.1762 248.593 19.8884V18.5013C248.593 18.1416 248.884 17.8501 249.244 17.8501H253.812L253.813 17.8513ZM248.8 31.1656C248.8 28.2122 248.139 25.9101 246.818 24.2617C245.495 22.6134 243.702 21.7892 241.436 21.7892C240.064 21.7892 238.906 22.0732 237.961 22.6386C237.017 23.2053 236.244 23.9437 235.644 24.8537C235.043 25.7649 234.614 26.7948 234.357 27.9446C234.099 29.0957 233.971 30.272 233.971 31.4736C233.971 32.607 234.117 33.7227 234.409 34.822C234.7 35.9214 235.147 36.9008 235.747 37.7578C236.347 38.616 237.112 39.3039 238.039 39.8189C238.966 40.3338 240.064 40.5913 241.334 40.5913C242.605 40.5913 243.761 40.3161 244.706 39.7671C245.65 39.2181 246.422 38.4974 247.024 37.6038C247.623 36.7102 248.07 35.7068 248.362 34.5898C248.654 33.4741 248.799 32.3318 248.799 31.1644L248.8 31.1656Z" fill="black"/>
<path d="M258.607 8.21294C258.607 6.45856 260.029 5.03613 261.784 5.03613C263.538 5.03613 264.959 6.45856 264.959 8.21294C264.959 9.96731 263.537 11.391 261.784 11.391C260.03 11.391 258.607 9.96857 258.607 8.21294ZM259.496 44.3757C259.137 44.3757 258.846 44.0842 258.846 43.7245V18.3706C258.846 18.0109 259.137 17.7194 259.496 17.7194H264.069C264.429 17.7194 264.72 18.0109 264.72 18.3706V43.7245C264.72 44.0842 264.429 44.3757 264.069 44.3757H259.496Z" fill="black"/>
<path d="M269.736 44.5331C269.377 44.5331 269.085 44.2416 269.085 43.8819V5.65419C269.085 5.29448 269.377 5.00293 269.736 5.00293H274.309C274.669 5.00293 274.96 5.29448 274.96 5.65419V43.8819C274.96 44.2416 274.669 44.5331 274.309 44.5331H269.736Z" fill="black"/>
<path d="M302.05 17.7529C302.408 17.7529 302.701 18.0457 302.701 18.4042V46.8048C302.701 52.3848 298.181 56.9083 292.605 56.9083H281.398C281.037 56.9083 280.746 56.6155 280.746 56.2557V51.9973C280.746 51.6363 281.038 51.3448 281.398 51.3448H291.47C294.259 51.3448 296.826 49.0287 296.826 46.2381V45.1123H296.83V42.3836C296.83 42.0971 296.487 41.9494 296.28 42.1476C294.431 43.9221 291.943 45.0341 289.195 45.1073C289.125 45.1073 289.051 45.1111 288.981 45.1111C288.901 45.1123 288.824 45.1073 288.746 45.1073C285.829 45.1073 283.53 44.3525 281.846 42.8417C280.164 41.3284 279.323 39.0616 279.323 36.0413V18.4042C279.323 18.0457 279.615 17.7529 279.975 17.7529H284.541C284.902 17.7529 285.192 18.0457 285.192 18.4042V34.4965C285.262 36.5904 285.708 38.11 286.531 39.0541C287.355 39.9994 288.641 40.4702 290.394 40.4702C291.389 40.4702 292.282 40.2909 293.071 39.93C293.86 39.5703 294.531 39.0717 295.079 38.4369C295.628 37.7995 296.058 37.0548 296.366 36.1966C296.675 35.3371 296.83 34.427 296.83 33.4653V18.4042C296.83 18.0457 297.123 17.7529 297.481 17.7529H302.049H302.05Z" fill="black"/>
</g>
<defs>
<clipPath id="clip0_63_681">
<rect width="302.701" height="63.107" fill="white"/>
</clipPath>
</defs>
</svg>
