<svg width="400" height="306" viewBox="0 0 400 306" fill="none" xmlns="http://www.w3.org/2000/svg">
<path d="M57.7904 172.267H71.3881V250.467V267.467C71.3881 276.533 64.5893 282.2 56.6573 282.2C48.7252 282.2 43.0595 275.4 43.0595 267.467V251.6V61.2V44.2C43.0595 38.5333 44.1927 23.8 54.391 23.8C63.4561 23.8 69.1218 31.7333 71.3881 44.2C74.7876 56.6666 77.0539 85 77.0539 97.4666C77.0539 102 78.187 103.133 83.8527 103.133C87.2522 103.133 94.051 103.133 94.051 103.133V20.4H84.9859V24.9333C84.9859 29.4666 82.7196 28.3333 80.4533 27.2C72.5213 21.5333 63.4561 18.1333 54.391 18.1333C40.7932 18.1333 20.3966 23.8 20.3966 51V248.2C20.3966 282.2 38.5269 289 56.6573 289C70.255 289 77.0539 282.2 81.5864 278.8C84.9859 276.533 88.3853 281.067 88.3853 286.733H95.1842V173.4H106.516V165.467H57.7904V172.267Z" fill="#000D42"/>
<path d="M339.943 20.4H292.351V28.3333H304.816V39.6667V270.867C304.816 276.533 302.55 277.667 294.618 278.8H292.351V285.6H346.742V278.8H339.943C330.878 278.8 327.479 274.267 327.479 266.333V172.267H343.343C366.006 172.267 379.603 160.933 379.603 146.2V97.4667V48.7333C379.603 34 368.272 20.4 339.943 20.4ZM356.941 95.2V147.333C356.941 155.267 351.275 163.2 341.077 163.2H327.479V96.3333V28.3333H339.943C351.275 28.3333 356.941 38.5333 356.941 45.3333V95.2Z" fill="#000D42"/>
<path d="M174.504 164.333L186.969 57.8L201.7 164.333H174.504ZM237.96 266.333L207.365 20.4H183.569L152.975 267.467C151.841 275.4 150.708 277.667 139.377 277.667V278.8V284.467H177.904V277.667C173.371 277.667 168.839 276.533 166.572 274.267C165.439 273.133 164.306 270.867 164.306 268.6L175.637 171.133H205.099L217.564 268.6C217.564 274.267 216.431 276.533 209.632 277.667H203.966V284.467H252.691V277.667H251.558C241.36 277.667 237.96 272 237.96 266.333Z" fill="#000D42"/>
</svg>
